<?xml version="1.0" encoding="UTF-8"?>
<svg id="Layer_1" data-name="Layer 1" xmlns="http://www.w3.org/2000/svg" viewBox="0 0 375.1 483.55">
  <defs>
    <style>
      .cls-1 {
        fill: #5b79af;
      }

      .cls-2 {
        fill: #ec9a2e;
      }

      .cls-3 {
        fill: #019b8f;
      }

      .cls-4 {
        fill: #004c63;
      }

      .cls-5 {
        fill: #282723;
      }
    </style>
  </defs>
  <polygon class="cls-1" points="187.55 176.78 115.37 208.84 0 93.47 187.55 176.78"/>
  <polygon class="cls-4" points="260.1 209.01 187.82 281.29 187.55 281.02 187.28 281.29 115 209.01 115.37 208.84 187.55 176.78 259.73 208.84 260.1 209.01"/>
  <polygon class="cls-3" points="375.1 93.47 259.73 208.84 187.55 176.78 375.1 93.47"/>
  <polygon class="cls-2" points="287.09 66.71 186.38 127.42 85.67 66.71 186.38 0 287.09 66.71"/>
  <g>
    <path class="cls-5" d="m190.64,336.51c-20.08-17.2-41.21-15.04-62.62,1.75v-34.81h-11.59v67.33h-26.94v-43.51h-11.15c-.12,2.75-.26,4.72-.3,6.69-.2,10.66.12,21.35-.69,31.96-.96,12.49-12.33,22.2-25.64,22.91-13.35.72-26.48-8.02-28.9-19.89-2.39-11.71.33-22.15,9.63-30.33.97-.85,1.78-1.88,3.04-3.23-1.24-2.36-2.42-4.6-3.97-7.54-2.77,1.86-5.1,3.09-7.04,4.77-17.18,14.79-17.9,41.36-1.62,57.32,16.37,16.05,43.31,14.71,57.52-3.11,2.69-3.38,5.48-4.63,9.71-4.62,35.65.13,71.3.08,106.95.03,2.55,0,5.1-.39,8.09-.64,1.12-17.58-1.27-33.78-14.49-45.1Zm1.27,34.29h-61.96c-2.66-9.51,3.11-21.88,12.91-28.88,10.72-7.65,25.21-7.55,36.02.25,9.87,7.12,15.64,19.42,13.02,28.63Z"/>
    <path class="cls-5" d="m359.29,337.64c-8.35-11.27-22.92-14.85-34.63-8.51-13.27,7.18-18.85,21.8-13.64,35.72.67,1.78,1.33,3.57,2.23,5.97h-31.44c.38-4.14.82-7.72,1.01-11.31,1.23-22.63-13.15-36.41-35.14-33.75-13.31,1.61-22.4,11.03-23.95,24.83-1.47,13.04,5.32,24.49,17.65,28.44,5.46,1.75,11.37,2.1,17.08,3.03,1.88.31,3.78.44,7.43.85-5.56,7.88-10.34,14.64-15.54,22,3.14,2.31,5.93,4.38,9.75,7.2,6.59-10.05,12.65-19.3,19.35-29.53,1.28-.08,3.25-.3,5.21-.31,17.32-.07,34.64-.06,51.95-.16,7.25-.04,13.84-2.23,19.15-7.25,10.57-10,11.98-25.82,3.52-37.23Zm-91.32,33.5c-7.56,1.13-15.11,1.48-22.4-1.6-6.5-2.74-10.3-9.84-9.46-17.06.95-8.12,6.41-14.16,13.98-15.48,7.21-1.25,13.79,2.14,17.3,8.91,3.93,7.58,4.34,17.93.58,25.22Zm68.8-.4c-8.93-.01-16.4-7.53-16.5-16.58-.1-9.27,7.58-17.17,16.58-17.06,9.13.12,16.79,7.86,16.8,16.99.02,9.24-7.5,16.66-16.88,16.64Z"/>
  </g>
  <path d="m54.81,336.89c-3.65-.41-6.13-2.08-5.91-6.01.2-3.64,2.33-5.92,6.05-5.97,3.88-.05,5.79,2.61,5.86,6.09.08,3.72-2.37,5.62-6,5.89Z"/>
  <g>
    <path class="cls-5" d="m289.13,444.26c-.34,6.64-.66,12.83-.99,19.36h-7.62c-.48-4.99-.91-9.51-1.37-14.35h-6.2c-.43,5.01-.83,9.54-1.24,14.3h-7.83c-.5-5.04-.95-9.55-1.42-14.32h-6.33c-.38,5.01-.73,9.56-1.16,15.14-7.97,0-15.4.1-22.83-.03-5.85-.11-6.99-1.35-7.09-7.15-.07-4.24-.01-8.49-.01-13.09h-6.94c-.32,6.52-.63,12.72-.97,19.58h-30.03c3.5-11.22,3.11-15.3-1.56-18.65-4.49-3.22-13.61-3.56-18.09-.29-7.06,5.15-5.36,11.72-1.96,18.45-1.21.58-1.65.98-2.09.98-20.49.05-40.98.09-61.47.05-3.43,0-5.07-2.14-5.23-5.46-.12-2.49.54-5.33-.44-7.41-1.37-2.92-3.48-6.7-6.1-7.55-4.66-1.52-9.95-1.12-15.35-1.55v5.32c4.63,1.16,9.57,1.1,12.6,3.48,3.63,2.85,2.11,7.85.7,12.66-5.48.43-10.81.85-16.58,1.3.13,2.04.22,3.42.38,5.95,8.3-.43,16.14-.84,23.98-1.25,3.3.12,6.72.89,10.14.91,19.66.12,39.32.09,58.99.06,5.14,0,10.28-.27,15.42-.28,14.59-.04,29.18-.01,43.78-.01,0-.18,0-.36-.01-.54h38.53s0-.01,0-.02h16.49c2.71-.04,5.46.65,8.24.76,3.43.14,7.58-.36,7.94-4.38.65-7.17.18-14.45.18-21.99h-6.46Zm-112.93,18.09c-4.16-.48-5.76-3.63-6.11-7.36-.35-3.78,2.24-6.53,6.23-6.6,3.46.27,5.84,2.12,6.02,6.16.17,3.89-3.03,8.15-6.15,7.79Z"/>
    <path class="cls-5" d="m360.14,430.75c0-1.26-.48-2.51-.78-3.99h-6.95v36.04c-9.43,3.46-12.81,1.23-12.83-7.33-.02-7.49.03-14.98-.04-22.47-.02-2.08-.36-4.16-.6-6.79-2.42.25-4.24.45-7.06.74v36.95h-9.62v-27.77h-7.54v27.78c-4.42.38-7.81.68-11.51,1v5.03h35.53c-.01-.1-.03-.2-.04-.3,4.1.37,8.2,1.03,12.31,1.04,6.78.01,9.07-2.22,9.17-8.97.15-10.32.04-20.64-.03-30.95Z"/>
    <path class="cls-5" d="m33.16,442.65c-7.34.53-10.8,4.78-11.65,13.05-.27,2.62-1,5.81-2.72,7.53-5.57,5.57-7.38,12.46-4.29,20.32h4.85c3.19-4.79-1.64-11.9,5.32-14.97,2.39.79,4.69,1.9,7.1,2.28,5.29.83,10.41.4,14.02-4.28,3.5-4.53,3.65-13.26.45-18.55-3.01-4.99-7.9-5.76-13.08-5.38Zm1.57,21.99c-3.77-.08-5.89-2.84-5.93-7.69-.04-4.73,2.17-7.7,5.82-7.85,3.82-.16,6.58,3.07,6.61,7.74.03,4.73-2.6,7.89-6.5,7.8Z"/>
    <path class="cls-5" d="m56.71,470.45c2.43-.15,4.24-.26,6.18-.37v-43.45h-6.18v43.83Z"/>
    <path class="cls-5" d="m184.07,436.22c-.23-2.21-.4-3.86-.57-5.51h-14.25c.12,2.14.21,3.81.31,5.51h14.51Z"/>
    <path class="cls-5" d="m229.09,430.21c-2.65.33-4.7,0-5.73.88-1,.84-.95,2.91-1.53,5.11,2.66.18,4.33.29,6.47.43.25-2,.44-3.5.8-6.42Z"/>
    <path class="cls-5" d="m219.78,430.59h-5.5v5.78h5.5v-5.78Z"/>
  </g>
</svg>